<?xml version="1.0" standalone="no"?>
<!DOCTYPE svg PUBLIC "-//W3C//DTD SVG 20010904//EN"
 "http://www.w3.org/TR/2001/REC-SVG-20010904/DTD/svg10.dtd">
<svg version="1.0" xmlns="http://www.w3.org/2000/svg"
 width="411.000000pt" height="411.000000pt" viewBox="0 0 411.000000 411.000000"
 preserveAspectRatio="xMidYMid meet">
<metadata>
Created by potrace 1.15, written by Peter Selinger 2001-2017
</metadata>
<g transform="translate(0.000000,411.000000) scale(0.100000,-0.100000)"
fill="#000000" stroke="none">
<path d="M1834 4092 c-6 -4 -14 -17 -18 -29 -6 -20 -10 -21 -28 -10 -16 9 -22
9 -25 0 -3 -7 -11 -13 -18 -13 -7 0 -28 -14 -45 -32 -25 -25 -36 -29 -48 -21
-12 7 -26 5 -51 -9 -30 -17 -35 -18 -43 -4 -5 8 -15 13 -23 10 -8 -4 -15 -1
-15 5 0 18 29 25 46 10 13 -10 17 -10 24 1 6 9 4 18 -3 23 -8 5 -3 7 13 5 17
-2 35 6 54 24 l30 27 -30 -3 c-16 -2 -35 -4 -43 -5 -11 -1 -10 -5 5 -16 18
-14 18 -14 -8 -15 -21 0 -28 5 -28 19 0 17 -18 31 -41 31 -5 0 -9 -7 -9 -15 0
-18 -26 -20 -33 -2 -3 6 -6 3 -6 -7 -1 -18 -3 -18 -26 4 -20 19 -26 20 -30 8
-6 -16 -50 -14 -72 4 -7 5 -13 5 -17 0 -6 -10 20 -36 47 -45 19 -7 21 -15 8
-36 -11 -17 -34 -4 -27 15 3 9 -4 16 -19 20 -14 3 -25 13 -25 20 0 21 -45 35
-75 24 -14 -5 -25 -14 -25 -20 0 -6 4 -9 10 -5 5 3 20 3 34 -1 37 -9 32 -51
-6 -59 -30 -7 -52 1 -43 15 3 5 1 11 -5 15 -5 3 -10 1 -10 -4 0 -17 -18 -13
-22 5 -3 13 -6 12 -24 -5 -14 -12 -30 -18 -43 -14 -12 3 -21 1 -21 -6 0 -17
-17 -13 -39 10 -14 15 -21 17 -26 8 -5 -7 -4 -10 3 -5 7 4 10 -1 9 -14 -2 -25
-12 -26 -29 -1 -10 13 -19 17 -28 11 -11 -7 -11 -12 -2 -23 17 -20 3 -29 -16
-11 -16 16 -73 17 -105 1 -14 -6 -17 -15 -13 -33 4 -14 2 -24 -4 -24 -5 0 -10
7 -10 15 0 8 -4 15 -10 15 -5 0 -10 -4 -10 -9 0 -10 -14 -9 -41 3 -21 9 -84
-7 -84 -21 0 -20 -12 -24 -24 -9 -7 8 -19 12 -27 9 -8 -3 -21 1 -30 8 -13 10
-16 9 -20 -8 -6 -21 -6 -21 -25 -2 -10 10 -26 19 -36 19 -15 0 -15 -1 1 -19
16 -18 16 -18 -9 -18 -14 0 -25 3 -25 7 0 4 -13 7 -30 6 -16 -1 -30 -4 -30 -8
0 -5 -5 -8 -11 -8 -6 0 -9 7 -5 15 4 11 -1 15 -19 15 -14 0 -25 -4 -25 -8 0
-13 -31 -8 -67 11 -28 15 -32 15 -37 0 -4 -9 -5 -16 -4 -17 12 -4 88 -41 111
-53 15 -8 35 -12 43 -9 15 6 18 -2 6 -21 -6 -9 -20 -6 -57 12 -28 13 -65 25
-83 25 -20 0 -35 6 -38 15 -4 8 -10 15 -15 15 -5 0 -9 -7 -9 -15 0 -8 7 -15
15 -15 8 0 15 -5 15 -11 0 -7 -8 -9 -22 -4 -13 4 -56 8 -96 9 -41 2 -77 7 -80
13 -4 6 -16 1 -30 -14 -17 -17 -19 -23 -7 -23 8 0 15 -9 15 -20 0 -13 -7 -20
-20 -20 -20 0 -20 -7 -20 -455 0 -429 1 -454 18 -448 9 4 24 14 32 23 8 10 29
25 45 34 17 9 57 36 90 61 33 24 65 44 71 44 7 1 22 12 35 26 13 13 30 25 37
25 21 0 13 -16 -14 -28 -34 -16 -20 -35 22 -30 21 3 35 -1 38 -9 4 -9 -2 -12
-19 -9 -14 3 -23 1 -20 -4 10 -17 14 -130 4 -130 -5 0 -9 7 -9 15 0 17 -35 55
-51 55 -6 0 -8 -8 -5 -18 3 -9 8 -33 10 -51 2 -19 12 -40 22 -47 33 -23 44
-35 44 -46 0 -9 -3 -9 -11 -1 -6 6 -30 8 -57 5 -47 -5 -75 -26 -67 -49 2 -7
-7 -25 -20 -40 -18 -21 -24 -24 -25 -12 0 9 -15 24 -34 33 -42 20 -47 20 -40
1 4 -10 0 -15 -12 -16 -13 0 -10 -4 9 -11 23 -8 26 -13 16 -24 -9 -11 -8 -18
5 -32 9 -10 16 -26 16 -35 0 -18 5 -22 43 -31 20 -5 27 -3 27 9 0 8 3 15 6 15
14 0 64 -43 63 -53 -3 -27 3 -32 40 -33 41 -1 41 -1 21 71 -4 13 10 45 20 45
4 0 10 -23 13 -50 5 -38 13 -56 34 -74 23 -20 25 -26 15 -39 -8 -9 -10 -27 -7
-44 5 -21 4 -24 -4 -13 -6 8 -11 27 -11 42 0 20 -4 26 -15 22 -10 -4 -13 -14
-9 -30 5 -18 2 -24 -10 -24 -9 0 -16 -4 -16 -10 0 -5 -12 -10 -26 -10 -22 0
-25 3 -20 23 21 79 22 75 -13 42 -24 -22 -30 -25 -25 -11 5 14 4 17 -5 12 -8
-5 -24 3 -42 22 -20 20 -26 33 -18 37 19 12 -12 25 -33 14 -17 -9 -17 -11 -1
-45 16 -31 16 -38 3 -61 -9 -16 -25 -27 -42 -29 -25 -2 -28 2 -43 53 -9 31
-14 65 -11 75 3 14 0 18 -9 14 -9 -3 -12 0 -9 9 3 7 12 16 20 19 18 7 19 89 1
104 -15 13 -43 -1 -33 -16 3 -6 3 -17 0 -26 -6 -15 -8 -15 -19 1 -11 15 -13 3
-14 -76 0 -90 1 -93 16 -71 12 17 13 25 5 28 -7 2 -12 8 -12 13 0 5 9 4 20 -3
11 -7 20 -23 20 -35 0 -12 5 -34 12 -50 6 -15 10 -34 9 -40 -1 -7 5 -13 14
-13 9 0 23 -6 30 -14 12 -12 12 -19 -2 -46 -13 -27 -17 -30 -24 -17 -14 23
-69 19 -69 -5 0 -11 -5 -16 -10 -13 -6 4 -10 -13 -10 -44 0 -48 1 -51 26 -51
14 0 33 -7 42 -16 15 -16 15 -18 -6 -32 -27 -18 -28 -28 -2 -35 11 -3 20 -12
20 -20 0 -11 -7 -13 -22 -9 -26 6 -17 -13 19 -41 13 -10 23 -25 23 -33 0 -8 5
-14 10 -14 6 0 17 -17 25 -38 16 -40 55 -57 55 -24 0 15 2 15 10 2 17 -27 12
-49 -10 -43 -23 6 -28 -15 -6 -23 22 -8 7 -42 -27 -59 -38 -19 -39 -19 -36 3
5 51 -3 75 -33 102 -17 16 -34 28 -36 25 -2 -2 3 -24 11 -49 15 -45 13 -86 -5
-86 -5 0 -7 4 -3 10 8 12 -21 80 -34 80 -14 0 -14 -6 4 -40 16 -31 3 -52 -14
-23 -8 14 -10 1 -11 -53 l0 -71 36 -11 c31 -9 42 -8 72 9 20 10 44 19 53 19 9
0 24 9 35 21 10 11 26 18 35 16 9 -2 21 4 27 13 6 10 30 21 52 25 23 4 44 13
47 20 2 8 11 11 19 8 10 -4 17 2 21 16 4 15 11 20 24 16 12 -4 22 1 29 15 6
12 18 19 25 16 14 -5 39 17 30 26 -3 3 2 11 11 19 14 11 15 10 12 -5 -2 -14 7
-22 32 -32 19 -7 29 -13 22 -13 -7 -1 -11 -5 -7 -11 3 -5 12 -7 19 -4 19 7 48
-83 35 -108 -6 -10 -8 -27 -4 -37 3 -10 -1 -24 -10 -31 -12 -10 -16 -9 -21 6
-15 48 -25 64 -40 64 -13 0 -15 -7 -10 -35 9 -48 -4 -65 -20 -26 -8 20 -20 31
-32 31 -11 0 -22 7 -26 15 -3 8 -13 15 -23 15 -16 0 -15 -3 4 -18 12 -10 24
-34 28 -59 8 -51 -7 -57 -30 -13 -9 17 -24 30 -34 30 -11 0 -22 6 -24 13 -13
31 -6 -24 8 -63 8 -23 13 -52 10 -64 -6 -27 29 -70 50 -62 9 3 18 14 22 23 8
23 36 51 65 64 44 20 71 38 80 53 5 9 15 16 23 16 13 0 31 36 27 54 -4 11 48
86 59 86 4 0 9 12 11 27 3 26 6 28 58 30 46 1 57 -2 77 -23 12 -13 31 -24 43
-24 11 0 20 -7 20 -15 0 -23 42 -37 56 -19 16 20 19 19 65 -27 47 -47 45 -61
-3 -31 -30 18 -63 26 -94 23 -6 -1 -16 -19 -23 -41 -12 -42 -31 -54 -31 -21 0
20 -32 37 -49 27 -5 -4 -11 0 -14 6 -7 22 -16 4 -28 -56 -8 -37 -9 -60 -2 -67
5 -5 34 -11 64 -12 49 -2 54 0 54 20 0 11 3 25 8 29 4 4 7 15 7 25 0 21 34 30
80 20 33 -7 35 -9 33 -46 -2 -21 2 -44 8 -51 5 -6 7 -24 4 -38 -3 -14 -7 -37
-10 -51 -4 -20 -1 -25 14 -25 11 0 23 5 26 10 4 6 11 8 16 4 5 -3 7 -9 4 -14
-6 -9 21 -28 40 -28 6 -1 11 -7 13 -15 2 -9 -4 -14 -14 -13 -30 2 -26 -22 5
-39 38 -19 40 -29 5 -21 -20 5 -27 3 -31 -14 -7 -26 -23 -26 -23 0 0 19 -25
38 -35 28 -3 -3 -8 -27 -11 -54 -9 -72 -11 -79 -29 -64 -12 10 -15 10 -16 -1
0 -8 -5 0 -11 16 -10 28 -25 44 -39 45 -3 0 -2 -21 2 -47 4 -27 5 -64 3 -83
-4 -31 2 -44 53 -108 46 -57 59 -68 61 -52 4 25 30 26 49 2 13 -15 14 -15 9 9
-4 19 0 31 16 45 12 10 18 13 14 7 -9 -16 30 -18 40 -2 3 6 20 8 38 5 26 -5
32 -3 33 11 2 25 36 117 46 121 17 8 -7 22 -39 22 -19 0 -34 4 -34 9 0 21 13
41 26 41 12 0 12 4 -2 25 -9 14 -25 25 -35 25 -23 0 -35 18 -20 33 16 16 14
44 -5 72 -15 23 -14 24 15 39 31 17 55 49 44 60 -10 10 -55 7 -49 -3 3 -5 -1
-12 -10 -15 -23 -9 -24 -8 -17 12 6 14 4 15 -9 5 -19 -16 -28 -7 -28 26 0 19
-3 22 -9 12 -5 -7 -13 -11 -19 -7 -6 3 -15 -2 -21 -11 -7 -14 -5 -23 10 -39
13 -14 17 -24 10 -29 -6 -3 -11 1 -11 9 0 9 -9 16 -20 16 -11 0 -20 6 -20 14
0 8 -3 21 -6 30 -4 11 0 16 12 16 42 0 116 35 132 62 21 36 50 38 48 3 -1 -19
-7 -25 -23 -25 -27 0 -30 -12 -8 -30 14 -12 29 -14 118 -19 15 0 26 -6 25 -13
-2 -6 5 -14 14 -16 13 -2 16 1 12 12 -3 9 -1 16 5 16 6 0 14 -14 18 -30 7 -39
14 -42 37 -19 17 17 18 19 3 19 -9 0 -17 5 -17 11 0 6 8 8 19 4 11 -3 22 -1
26 5 8 13 72 2 103 -18 20 -13 23 -21 17 -48 -5 -27 -2 -36 15 -46 11 -7 20
-19 20 -26 0 -7 7 -15 16 -19 9 -3 14 -15 12 -31 -3 -23 3 -28 47 -44 59 -22
78 -20 80 7 2 11 10 37 19 58 9 21 12 37 6 37 -5 0 -10 -4 -10 -9 0 -4 -11 -6
-25 -3 -18 3 -25 11 -25 28 0 15 6 24 16 24 13 0 14 3 4 15 -7 8 -10 22 -6 30
6 16 -14 22 -68 23 -39 0 -48 12 -36 52 10 37 1 58 -21 45 -17 -11 -69 -14
-69 -5 0 9 36 20 70 20 15 0 31 5 38 12 10 10 15 8 27 -9 10 -14 22 -19 34
-16 11 3 34 -1 51 -8 26 -12 30 -18 25 -41 -6 -23 -2 -28 29 -39 20 -7 36 -18
36 -25 0 -6 7 -15 15 -18 12 -4 14 -14 9 -43 -4 -21 -11 -47 -17 -58 -7 -13
-7 -20 2 -23 6 -2 11 -12 11 -23 0 -10 5 -19 10 -19 11 0 13 -39 4 -64 -5 -12
-10 -13 -25 -5 -14 7 -19 6 -19 -4 0 -7 4 -17 9 -23 18 -20 -9 -73 -52 -102
-63 -43 -77 -39 -79 22 0 28 -1 57 -1 64 1 24 -18 12 -34 -23 -15 -31 -18 -32
-29 -17 -7 9 -11 19 -9 22 2 4 -11 14 -30 24 -30 16 -33 21 -24 43 13 34 11
41 -5 20 -18 -23 -49 -12 -41 14 7 22 -10 26 -18 5 -4 -9 -14 -12 -27 -9 -28
7 -32 17 -20 47 6 16 6 27 -1 31 -5 4 -8 18 -7 33 3 26 0 28 -42 31 -13 1 -20
8 -20 22 0 15 -5 19 -15 15 -21 -8 -45 3 -45 20 0 8 -6 14 -12 14 -7 0 -23 3
-35 6 -14 4 -23 2 -23 -5 0 -6 8 -11 17 -11 15 0 14 -2 -3 -19 -10 -10 -21
-17 -23 -15 -2 2 -12 -3 -22 -12 -10 -9 -19 -11 -23 -6 -7 12 -46 4 -46 -9 0
-13 36 -29 68 -29 16 0 35 -7 42 -15 7 -8 18 -15 24 -15 6 0 20 -7 30 -15 18
-14 18 -16 3 -33 -11 -12 -13 -22 -7 -32 5 -8 10 -27 10 -42 0 -24 4 -28 28
-28 20 0 44 -14 79 -45 28 -25 70 -56 93 -68 46 -24 63 -47 35 -47 -13 0 -16
-7 -13 -29 4 -27 3 -28 -30 -20 -19 4 -39 12 -45 18 -15 15 -1 14 23 -1 28
-18 46 1 31 31 -13 23 -26 27 -36 11 -10 -16 -48 9 -40 27 3 10 -4 26 -16 40
l-23 23 -12 -32 c-6 -18 -21 -57 -32 -87 -19 -51 -52 -89 -52 -59 0 17 -56 49
-75 42 -13 -5 -13 -10 0 -34 8 -16 15 -36 15 -45 0 -17 -54 -78 -62 -70 -3 3
-13 -4 -23 -15 -27 -29 -35 -25 -35 20 0 22 -4 40 -9 40 -4 0 -6 -22 -3 -49 4
-42 1 -51 -16 -60 -27 -14 -31 -6 -34 63 -1 32 -7 60 -12 63 -5 4 -7 -1 -3
-10 3 -10 2 -17 -2 -17 -5 0 -7 -27 -4 -60 4 -36 2 -60 -4 -60 -6 0 -10 13
-11 30 -1 40 -7 47 -42 55 -17 4 -30 10 -30 14 0 5 -14 8 -31 7 -28 -1 -30 -3
-27 -38 1 -20 -1 -40 -5 -44 -4 -4 -8 6 -9 22 0 16 -2 35 -2 43 -1 8 -6 16
-13 18 -7 3 -9 11 -6 19 3 8 -1 14 -10 14 -8 0 -27 19 -43 43 -16 23 -39 55
-51 70 -25 31 -23 47 8 47 21 0 26 24 7 36 -6 4 -28 8 -47 8 -29 1 -36 5 -36
21 0 13 6 20 17 19 14 -1 16 6 13 44 -4 46 -16 62 -47 62 -10 0 -18 5 -18 10
0 6 14 10 30 10 23 0 33 6 42 25 13 29 25 31 56 9 18 -12 26 -13 37 -4 8 7 15
19 15 26 0 8 6 11 15 8 24 -10 45 15 45 52 0 19 3 33 8 33 29 -5 34 2 29 42
-6 46 -5 44 -34 53 -22 7 -23 5 -23 -46 -1 -53 -1 -53 -16 -25 -21 38 -26 34
-24 -20 3 -62 2 -73 -9 -73 -5 0 -11 13 -14 29 -3 15 -14 31 -24 35 -10 3 -24
9 -30 12 -9 4 -13 -2 -13 -17 l0 -23 -21 23 c-12 12 -23 21 -25 19 -2 -2 0
-27 5 -56 4 -29 6 -52 5 -52 -2 0 -11 17 -20 38 -9 21 -18 31 -21 24 -4 -10
-10 -7 -20 9 -13 18 -17 19 -24 7 -5 -9 -4 -30 1 -49 7 -24 6 -35 -3 -41 -7
-5 -13 -1 -16 10 -2 9 -12 28 -22 41 -11 13 -19 33 -20 45 0 21 -1 21 -11 -2
-6 -12 -14 -22 -17 -22 -7 1 -71 104 -71 114 0 4 10 10 23 15 22 9 22 9 -6 22
-23 10 -29 10 -40 -3 -6 -9 -21 -18 -31 -20 -28 -4 -30 -23 -6 -46 18 -17 19
-20 6 -25 -9 -4 -16 -11 -16 -18 0 -18 54 -89 68 -89 7 0 15 -7 18 -15 4 -8
13 -15 20 -15 8 0 17 -7 20 -15 4 -8 24 -18 45 -21 43 -7 53 -30 18 -42 -11
-5 -20 -12 -19 -17 0 -6 -7 -12 -17 -14 -15 -3 -15 -1 -4 13 7 9 10 16 5 17
-5 0 -19 2 -32 3 -27 3 -46 -17 -39 -43 3 -12 -3 -27 -14 -37 -10 -9 -19 -13
-19 -8 0 5 -5 1 -11 -9 -6 -9 -14 -15 -20 -12 -5 4 -9 1 -9 -4 0 -27 -22 -7
-40 35 -21 48 -65 115 -113 173 -16 18 -26 39 -23 47 3 8 1 13 -5 11 -6 -1
-16 7 -22 18 -7 11 -30 46 -51 78 l-39 58 21 15 c24 16 29 35 10 32 -7 -2 -13
7 -13 19 0 29 -12 39 -19 15 -7 -20 -42 -36 -58 -26 -5 3 -3 13 4 22 12 14 9
15 -22 9 -18 -4 -36 -11 -40 -16 -3 -4 -17 -11 -32 -15 -20 -4 -28 -13 -28
-29 0 -18 -2 -19 -10 -7 -8 13 -10 12 -10 -3 0 -10 -4 -15 -10 -12 -6 3 -10
-3 -10 -14 0 -11 5 -23 11 -27 8 -5 7 -9 -2 -14 -14 -10 3 -52 57 -137 19 -28
34 -57 34 -63 0 -6 7 -13 15 -16 8 -4 15 -11 15 -16 0 -6 -6 -5 -15 2 -12 10
-20 9 -41 -5 -35 -22 -43 -11 -14 20 19 20 21 27 10 40 -15 18 -41 20 -58 3
-9 -9 -12 -179 -12 -705 l0 -693 1256 0 c834 0 1253 3 1249 10 -3 6 -2 10 4
10 5 0 13 -4 16 -10 4 -7 280 -10 796 -10 l789 0 0 524 0 524 -52 26 c-29 14
-44 26 -35 26 9 0 17 5 17 10 0 18 21 10 46 -17 l24 -28 -2 237 c-3 224 -4
238 -23 252 -20 15 -20 15 3 16 18 0 22 6 22 30 0 30 -8 37 -26 21 -5 -5 -19
-12 -31 -16 -18 -5 -22 -3 -17 9 5 12 2 15 -10 10 -9 -4 -15 -11 -13 -18 2 -6
-1 -16 -7 -22 -14 -14 -76 -26 -76 -15 0 4 -12 6 -26 3 -19 -3 -24 -10 -21
-22 3 -12 -2 -20 -17 -25 -21 -6 -21 -6 -1 -16 14 -7 3 -8 -37 -4 -50 4 -59 3
-68 -15 -6 -11 -16 -20 -22 -20 -7 0 -6 6 2 16 8 8 9 14 4 13 -23 -4 -44 3
-65 21 l-24 20 26 -5 c17 -4 30 -1 38 9 9 11 18 13 30 7 12 -7 31 0 69 26 40
26 56 32 66 24 10 -8 20 -6 39 9 14 11 34 20 45 20 31 0 53 32 46 68 -4 21 -3
32 5 32 6 0 10 -9 8 -21 -3 -31 25 -46 57 -31 23 10 26 18 26 60 0 44 -4 52
-47 95 -26 26 -50 47 -55 47 -17 0 15 -46 44 -63 29 -17 30 -19 15 -34 -15
-15 -18 -15 -35 0 -10 9 -24 17 -30 17 -18 0 -25 20 -11 36 11 13 8 15 -27 12
-43 -4 -64 -14 -64 -29 0 -6 5 -7 10 -4 6 3 10 1 10 -5 0 -7 9 -25 21 -41 19
-27 19 -30 3 -36 -11 -4 -23 1 -33 13 -9 10 -28 27 -42 36 -26 17 -27 16 -22
-3 3 -11 19 -27 36 -35 27 -14 28 -17 14 -32 -15 -14 -18 -14 -35 1 -10 9 -23
17 -28 17 -6 0 -15 5 -22 12 -9 9 -7 14 6 24 15 12 14 13 -9 14 -14 0 -34 -9
-44 -20 -10 -11 -23 -20 -28 -20 -6 0 -2 9 8 20 22 25 9 26 -19 3 -20 -17 -20
-17 -7 0 11 13 11 20 1 32 -11 13 -16 13 -47 0 -48 -20 -49 -20 -62 16 -15 43
-7 50 34 33 42 -17 92 -18 98 -1 3 8 13 3 30 -16 14 -15 34 -27 43 -27 15 0
14 4 -7 26 -22 24 -23 26 -6 38 23 17 22 30 -5 50 -22 15 -20 16 38 11 34 -2
66 -5 70 -6 5 -1 11 -1 14 1 35 12 68 6 92 -17 16 -15 28 -23 28 -19 0 4 -10
16 -22 26 -21 17 -21 19 -5 25 9 4 28 4 42 1 20 -5 24 -11 20 -29 -4 -15 0
-26 15 -35 20 -12 20 -10 20 78 0 53 -4 90 -10 90 -6 0 -9 5 -8 11 2 7 -11 16
-28 20 -28 8 -43 29 -44 60 0 4 20 14 45 23 41 16 45 20 45 52 0 31 -2 34 -19
24 -29 -15 -43 -12 -71 13 -14 12 -38 30 -53 40 -43 27 -28 30 39 6 106 -37
104 -37 104 8 0 38 -3 42 -76 95 l-77 55 -41 -12 c-23 -7 -53 -18 -67 -25 -22
-10 -31 -9 -53 5 -21 14 -24 21 -15 31 6 8 9 21 5 29 -5 13 -2 13 19 -1 22
-15 28 -15 69 1 l44 17 65 -46 c37 -27 68 -42 72 -37 3 6 -38 43 -92 82 -54
40 -100 74 -102 76 -2 2 -2 6 2 9 3 4 53 -28 111 -70 57 -42 111 -76 120 -76
11 0 16 9 16 28 -1 23 -14 36 -81 82 -126 86 -171 121 -164 128 4 4 21 12 38
18 18 7 31 17 29 24 -2 9 8 11 36 6 25 -4 56 0 82 9 24 8 45 13 48 10 3 -2 -4
-7 -14 -11 -37 -12 -83 -35 -88 -43 -3 -4 4 -18 16 -30 16 -18 22 -20 29 -9 5
7 13 14 19 14 5 1 15 2 21 3 6 0 8 8 5 17 -4 12 -2 15 9 10 23 -8 19 52 -5 89
-11 17 -20 41 -20 54 0 23 1 23 20 6 19 -17 19 -16 17 24 -1 23 -4 41 -7 41
-7 0 -65 46 -97 77 -29 28 -29 39 -2 46 16 4 20 11 16 27 -4 16 1 23 20 31 14
5 31 8 37 5 6 -2 3 -5 -6 -5 -21 -1 -43 -38 -27 -43 8 -3 6 -9 -4 -20 -14 -14
-14 -18 -1 -37 8 -11 20 -21 26 -21 6 0 20 -7 30 -17 17 -15 18 -14 18 35 0
44 -3 51 -22 54 -12 2 -23 9 -26 16 -3 9 2 10 22 2 l26 -10 0 90 c0 73 -3 90
-15 90 -8 0 -15 4 -15 10 0 5 7 7 15 4 13 -5 15 7 15 78 0 53 -5 89 -12 97
-10 11 -10 14 0 18 17 7 17 170 0 176 -10 3 -10 7 1 20 12 15 11 17 -4 17 -10
0 -26 7 -35 15 -18 16 -68 26 -128 25 -40 -1 -51 21 -24 50 19 20 22 21 50 6
39 -20 52 -20 52 -1 0 20 12 19 42 -5 25 -19 26 -19 42 -1 11 13 14 21 7 26
-6 3 -11 11 -11 16 0 6 5 7 10 4 19 -12 10 21 -9 35 -11 7 -17 18 -14 24 4 6
0 5 -9 -2 -13 -10 -17 -10 -22 3 -3 8 -10 15 -15 15 -6 0 -8 -6 -5 -14 3 -8
-4 -16 -18 -19 -13 -4 -24 -2 -26 3 -2 6 -13 10 -24 10 -11 0 -22 8 -25 20 -6
24 -33 27 -33 3 0 -14 -3 -13 -23 5 -27 26 -37 28 -37 7 0 -22 -18 -18 -31 7
-10 18 -13 19 -20 6 -6 -10 -18 -14 -36 -11 -23 4 -25 2 -13 -7 13 -10 12 -11
-3 -6 -10 3 -20 6 -22 6 -2 0 -1 9 2 19 4 16 1 19 -17 14 -13 -3 -19 -11 -16
-20 3 -8 1 -11 -5 -8 -5 4 -16 1 -24 -5 -8 -6 -19 -9 -24 -6 -5 4 -12 2 -16
-4 -10 -16 -28 -12 -21 5 5 15 -12 55 -24 55 -3 0 -6 -10 -5 -22 0 -13 -4 -24
-10 -25 -5 -1 -9 11 -9 27 2 33 -3 36 -29 16 -13 -10 -27 -12 -48 -6 -31 9
-69 6 -78 -7 -3 -5 -14 -14 -23 -21 -15 -12 -20 -11 -38 6 -18 17 -19 20 -5
32 9 8 29 10 50 7 26 -4 35 -2 35 8 0 7 6 15 13 18 6 2 9 8 5 12 -4 4 -13 3
-20 -2 -15 -12 -86 -10 -114 4 -20 10 -151 10 -160 0 -14 -14 11 -29 40 -24
39 6 56 0 56 -20 0 -13 -3 -13 -15 -3 -10 9 -15 9 -15 1 0 -6 -7 -11 -15 -11
-8 0 -15 5 -15 11 0 6 -6 9 -14 6 -8 -3 -26 6 -40 19 -14 14 -30 23 -36 19 -5
-3 -10 1 -10 9 0 19 -9 20 -44 6 -26 -10 -60 -4 -52 9 3 4 -5 8 -16 8 -19 2
-19 0 7 -27 21 -22 35 -28 61 -25 46 3 39 -17 -10 -29 -28 -8 -39 -7 -46 3 -4
8 -13 10 -20 6 -9 -5 -10 -2 -6 13 4 11 2 23 -3 27 -15 8 -51 -13 -51 -30 0
-7 -6 -16 -12 -18 -7 -3 -1 -6 15 -6 15 -1 27 4 27 11 0 8 6 6 17 -5 24 -24
11 -30 -46 -22 -47 6 -51 9 -51 35 0 21 6 29 25 34 22 6 23 9 13 31 -7 16 -14
21 -18 14 -4 -6 -16 -8 -26 -5 -25 8 -51 -29 -30 -41 14 -8 19 -24 17 -55 -1
-23 -59 -25 -67 -3 -4 8 -10 12 -15 9 -15 -9 -10 -21 11 -27 11 -3 20 -13 20
-22 0 -9 5 -13 11 -9 7 4 10 1 7 -7 -8 -24 -36 -22 -40 3 -2 13 -15 28 -31 36
-15 7 -35 25 -44 38 -22 34 -4 46 58 38 44 -6 47 -5 51 20 3 14 1 26 -4 26 -5
0 -6 6 -2 13 5 8 2 7 -10 -2 -9 -8 -15 -20 -12 -28 4 -9 -3 -13 -22 -13 -20 0
-23 3 -12 10 23 14 -13 24 -39 11 -14 -8 -22 -8 -27 0 -3 6 -15 9 -25 6 -11
-3 -17 -1 -14 3 10 16 -14 21 -27 6 -11 -12 -15 -12 -31 2 -18 16 -20 16 -32
-1 -16 -23 -25 -22 -25 3 0 24 -13 26 -30 5 -14 -17 -41 -20 -56 -5 -5 5 -23
11 -40 13 -16 2 -36 7 -43 11 -7 4 -15 5 -19 1 -3 -3 0 -10 8 -15 12 -8 11
-10 -6 -10 -11 0 -25 5 -32 12 -9 9 -12 8 -12 -6 0 -15 -3 -16 -14 -7 -10 9
-15 8 -19 -3 -7 -17 -47 -10 -63 12 -6 8 -16 12 -22 8 -7 -4 -12 -1 -12 6 0 9
-3 9 -10 -2 -9 -13 -12 -13 -20 2 -13 22 -79 35 -90 18 -6 -9 -9 -9 -15 -1 -5
9 -10 9 -21 0 -11 -9 -15 -8 -20 5 -6 15 -8 15 -18 1 -10 -13 -14 -13 -38 -1
-16 8 -28 11 -28 5 0 -5 -6 -9 -14 -9 -16 0 -29 27 -20 41 6 11 3 11 -12 1z
m1071 -259 c6 -6 34 -19 63 -29 50 -16 52 -17 36 -35 -9 -10 -26 -19 -38 -21
-13 -2 -22 -11 -24 -27 -3 -18 0 -22 11 -18 10 4 22 -4 32 -19 9 -14 19 -23
23 -20 11 6 25 -5 38 -29 14 -25 7 -46 -12 -38 -8 3 -14 1 -14 -5 0 -5 -9 -12
-20 -15 -11 -3 -20 -12 -20 -21 0 -18 -15 -21 -25 -6 -7 11 41 60 59 60 6 0 1
7 -12 15 -12 9 -29 15 -38 13 -9 -2 -19 3 -21 10 -3 7 1 10 11 6 9 -3 16 -1
16 5 0 15 -23 14 -39 -1 -11 -11 -13 -8 -9 14 3 15 1 25 -3 22 -5 -3 -9 6 -9
20 0 14 4 26 9 26 5 0 11 11 13 25 4 19 1 25 -12 25 -9 0 -22 -11 -28 -25 -6
-14 -17 -25 -24 -25 -8 -1 -5 -7 6 -15 18 -14 16 -15 -33 -15 -29 0 -50 -3
-48 -7 3 -5 -17 -8 -44 -8 -65 0 -57 18 11 28 69 10 76 17 16 17 -43 0 -48 2
-43 20 4 15 0 20 -15 20 -24 0 -19 24 7 29 10 2 25 -5 32 -15 12 -17 14 -17
33 4 28 30 50 28 50 -3 0 -30 20 -33 38 -5 11 18 9 21 -13 30 -15 6 -23 14
-20 20 3 6 -4 10 -17 11 -22 0 -22 1 -3 8 21 9 63 -5 80 -26z m436 -93 c6 0 7
5 4 10 -3 6 3 10 14 10 12 0 21 -5 21 -11 0 -6 7 -9 15 -5 8 3 15 1 15 -4 0
-6 10 -10 21 -10 17 0 19 -3 10 -13 -6 -8 -8 -17 -4 -20 3 -4 1 -7 -4 -7 -6 0
-13 5 -15 12 -5 15 -67 -8 -84 -31 -10 -13 -14 -13 -30 -1 -10 8 -15 10 -11 4
3 -6 -7 -25 -23 -43 -25 -27 -28 -35 -18 -51 19 -29 39 -33 55 -10 10 14 21
18 38 14 12 -3 26 -1 30 6 5 8 10 8 21 -1 11 -9 14 -9 14 0 0 7 5 9 11 5 8 -4
8 -9 0 -17 -6 -6 -11 -14 -11 -18 0 -11 61 -56 87 -63 22 -7 22 -7 7 31 -9 21
-22 44 -30 52 -12 13 -11 17 2 33 15 15 20 16 43 4 14 -8 42 -32 62 -54 37
-41 37 -64 2 -85 -8 -5 -11 -16 -8 -27 8 -27 -33 -34 -59 -10 -39 35 -133 107
-154 119 -28 15 -39 14 -46 -5 -8 -20 12 -47 30 -40 7 3 16 -4 19 -15 4 -10
20 -26 36 -34 16 -9 29 -20 29 -25 0 -5 11 -15 24 -22 45 -25 106 -68 106 -76
0 -10 51 -32 61 -26 5 3 9 -4 9 -15 0 -12 4 -21 8 -21 5 0 29 -15 53 -34 24
-18 58 -39 74 -45 27 -10 26 -10 -15 -5 -25 4 -51 11 -58 16 -6 6 -27 14 -45
17 -20 4 -32 13 -32 23 0 22 -99 100 -118 92 -8 -3 -18 -1 -22 5 -3 6 0 11 7
11 23 0 -15 20 -39 20 -13 0 -23 5 -23 11 0 5 6 7 13 3 6 -4 3 2 -7 14 -11 12
-27 22 -38 22 -10 0 -18 6 -18 14 0 19 -60 66 -92 73 -15 3 -25 10 -22 15 9
14 -15 28 -46 28 -17 0 -21 3 -12 9 10 6 7 12 -12 24 -14 10 -32 17 -41 17 -8
0 -15 3 -15 8 0 4 -10 12 -22 17 -13 6 -23 16 -23 23 0 15 -26 33 -37 26 -4
-3 -8 2 -8 10 0 20 4 20 45 0 22 -10 32 -21 28 -30 -4 -10 3 -14 25 -14 33 0
57 22 48 45 -4 12 3 15 33 15 30 0 40 5 51 24 11 21 16 23 37 15 13 -5 29 -9
34 -9z m329 -60 c99 -11 133 -24 126 -48 -7 -19 27 -42 62 -42 9 0 24 -5 32
-10 13 -9 13 -11 0 -20 -12 -8 -8 -16 27 -46 37 -31 41 -38 30 -55 -17 -27
-39 -23 -62 12 -24 36 -47 50 -100 60 -31 6 -36 5 -24 -4 15 -12 15 -47 -1
-47 -5 0 -7 6 -4 14 3 8 -5 21 -17 30 -19 13 -20 17 -8 32 11 14 11 18 -2 28
-8 6 -36 28 -61 49 -36 29 -52 36 -71 32 -14 -4 -28 -2 -31 3 -4 7 -16 6 -36
-1 -32 -12 -46 -6 -37 17 6 16 12 16 177 -4z m-1667 -157 c-7 -2 -9 -11 -6
-19 7 -19 23 -18 23 1 0 12 10 15 38 14 20 -1 41 -4 45 -7 17 -8 -27 -42 -55
-42 -38 0 -32 -24 6 -28 15 -2 30 -10 33 -18 3 -8 11 -14 19 -14 8 0 14 -4 14
-9 0 -11 55 -8 83 4 26 11 87 -3 87 -20 0 -10 11 -15 35 -15 19 0 35 3 35 8 0
4 4 13 9 21 7 11 14 10 37 -6 16 -11 40 -23 54 -26 24 -6 24 -6 5 9 -19 15
-18 15 10 8 40 -9 47 -13 39 -26 -5 -7 2 -9 21 -4 24 6 27 5 16 -7 -9 -12 -8
-16 6 -21 10 -4 19 -2 21 3 8 23 22 10 22 -20 0 -26 3 -30 23 -27 17 2 21 8
19 28 l-4 25 25 -23 c23 -22 30 -23 108 -17 46 3 109 9 139 14 57 8 90 5 90
-10 0 -9 -32 -13 -82 -9 -27 1 -94 -13 -140 -32 -45 -17 -33 -31 21 -23 31 4
51 3 56 -4 13 -22 89 -12 148 19 45 23 71 30 116 30 32 0 61 3 64 6 16 17 81
12 120 -9 38 -20 40 -22 18 -25 -13 -2 -32 -11 -42 -21 -18 -16 -18 -18 1 -49
12 -20 28 -32 41 -32 12 0 23 -8 26 -20 3 -13 14 -20 29 -20 17 0 22 -4 18
-15 -4 -8 -14 -15 -24 -15 -10 0 -23 7 -30 15 -14 17 -55 21 -45 5 10 -16 -4
-48 -22 -52 -13 -2 -11 -8 10 -28 24 -23 25 -26 10 -54 -12 -24 -13 -30 -1
-37 28 -19 59 -21 83 -5 15 10 26 12 30 6 3 -6 16 -10 28 -10 17 0 19 2 8 9
-9 6 -12 19 -8 39 4 20 1 34 -7 41 -21 17 -27 51 -9 44 14 -5 32 12 33 30 0 4
-9 16 -19 26 -20 20 -19 20 20 19 38 0 40 -2 35 -24 -4 -13 -3 -24 1 -25 5 0
23 -2 41 -3 39 -4 40 3 6 39 -25 27 -26 48 -1 27 17 -14 42 1 34 22 -4 9 -18
16 -32 16 -14 0 -25 5 -25 10 0 6 6 10 13 9 6 -1 19 -1 27 0 13 1 13 2 0 11
-8 5 -12 12 -8 15 12 12 48 -20 48 -42 0 -30 21 -29 49 1 19 20 26 22 46 12
15 -7 19 -13 12 -18 -6 -4 -17 -2 -23 3 -9 7 -20 2 -38 -16 -14 -14 -29 -25
-34 -25 -10 0 -22 -23 -22 -41 0 -5 7 -9 15 -9 9 0 12 -6 9 -15 -4 -9 -19 -15
-40 -15 -19 0 -34 -4 -34 -10 0 -5 5 -10 11 -10 23 0 -3 -18 -35 -24 -34 -7
-50 -30 -46 -70 3 -31 -10 -66 -24 -66 -8 0 -16 6 -19 13 -3 9 -7 9 -20 -2 -9
-7 -14 -17 -11 -22 3 -5 -1 -9 -10 -9 -8 0 -16 6 -19 13 -3 9 -7 9 -17 0 -16
-15 -4 -33 21 -33 11 0 18 -4 15 -9 -3 -5 -14 -7 -24 -5 -9 2 -24 0 -32 -5
-13 -9 -13 -12 3 -23 17 -13 17 -14 -3 -36 -11 -12 -27 -22 -35 -22 -8 0 -18
-8 -24 -17 -5 -10 -12 -15 -15 -12 -7 7 16 59 26 59 4 0 17 19 29 41 17 35 18
41 5 36 -9 -4 -16 -2 -16 3 0 6 -11 10 -23 10 -28 0 -50 -39 -36 -61 14 -22
11 -29 -11 -29 -11 0 -20 -6 -20 -14 0 -8 -7 -22 -16 -30 -14 -15 -14 -16 0
-16 21 0 21 -16 0 -24 -23 -9 -36 -7 -29 4 3 6 -1 7 -9 4 -19 -7 -20 6 -4 40
9 22 8 29 -6 45 -18 19 -44 18 -57 -2 -12 -17 -26 2 -21 28 6 32 -6 32 -37 0
-16 -17 -34 -25 -57 -25 -19 0 -34 -3 -34 -6 0 -16 52 -52 84 -58 26 -5 36
-12 36 -26 0 -10 3 -25 6 -34 5 -13 -2 -16 -35 -16 -39 0 -42 -2 -65 -49 -22
-43 -28 -48 -52 -43 -22 4 -26 2 -21 -11 4 -10 -3 -21 -18 -31 -30 -20 -35
-20 -35 -2 0 19 -32 30 -42 14 -6 -10 -8 -9 -8 2 0 11 -9 16 -27 15 -22 0 -29
5 -31 23 -2 12 -15 34 -29 49 -25 24 -27 25 -40 7 -7 -10 -13 -13 -13 -7 0 19
-40 2 -57 -23 -8 -13 -13 -33 -10 -44 3 -13 -1 -24 -14 -30 -27 -15 -13 -41
18 -34 15 4 28 1 36 -9 13 -16 75 -28 83 -16 2 5 11 6 19 3 26 -10 5 -24 -36
-24 -22 0 -39 -5 -39 -11 0 -6 -7 -8 -16 -5 -8 3 -22 0 -29 -8 -15 -15 -64
-13 -96 4 -33 18 -12 29 28 14 21 -7 44 -13 51 -14 15 0 12 31 -3 32 -5 0 -27
9 -47 19 -41 21 -51 49 -18 49 13 0 26 12 37 35 17 35 16 36 -6 58 -17 16 -25
19 -28 9 -3 -9 -10 -4 -19 14 -13 24 -12 29 1 44 19 21 20 60 1 60 -7 0 -21
10 -30 23 l-17 22 7 -23 c5 -21 3 -22 -32 -19 -28 3 -40 10 -51 32 -17 31 -7
45 35 45 31 0 29 30 -4 61 -25 23 -26 23 -15 2 15 -30 14 -33 -12 -33 -13 0
-28 -5 -35 -12 -9 -9 -12 -8 -12 5 0 9 -4 17 -10 17 -5 0 -10 8 -10 18 0 25
-28 48 -67 57 -26 5 -34 2 -42 -14 -14 -26 0 -35 39 -26 20 4 30 3 30 -5 0 -6
-5 -8 -12 -4 -6 4 -16 0 -22 -8 -10 -14 -15 -13 -40 8 -30 26 -29 54 1 55 14
0 12 2 -5 10 -13 5 -22 14 -20 21 6 18 28 22 28 5 0 -15 20 -27 46 -27 22 0
17 21 -6 27 -24 6 -22 25 2 29 9 1 18 -7 21 -17 7 -27 26 -23 33 7 5 19 9 22
15 13 6 -11 11 -11 21 -1 17 17 25 15 31 -9 4 -16 11 -19 26 -14 15 4 20 2 18
-7 -2 -7 -2 -10 0 -5 3 4 16 7 30 7 40 0 21 24 -26 33 -30 6 -41 13 -37 22 15
39 16 81 3 99 -12 17 -14 17 -30 1 -9 -9 -17 -25 -17 -36 0 -12 -7 -19 -20
-19 -13 0 -20 -7 -20 -20 0 -11 -5 -20 -11 -20 -6 0 -9 9 -6 20 4 14 0 20 -11
21 -32 1 -55 8 -65 18 -17 17 -47 13 -47 -6 0 -10 -5 -25 -10 -33 -7 -10 -8
-2 -4 29 4 25 3 42 -2 39 -5 -4 -10 6 -11 21 -2 22 3 27 24 29 14 1 31 -3 38
-8 21 -18 5 37 -16 56 -16 15 -19 15 -14 2 4 -11 -1 -17 -19 -22 -13 -3 -27
-14 -29 -24 -4 -13 -5 -11 -6 6 0 12 -6 22 -11 22 -6 0 -10 8 -8 18 2 11 -3
16 -14 14 -11 -2 -18 3 -18 14 0 11 -5 14 -16 10 -9 -3 -23 -6 -31 -6 -14 0
-14 -2 0 -18 10 -10 17 -33 17 -50 0 -19 5 -32 13 -32 17 0 36 -45 31 -73 -13
-58 -28 -97 -41 -97 -15 0 -18 36 -3 45 20 12 9 25 -20 25 -21 0 -30 -5 -31
-17 -1 -17 -2 -17 -6 -1 -4 14 -8 16 -24 8 -20 -11 -27 -40 -9 -40 5 0 7 -6 4
-13 -2 -7 6 -23 20 -36 18 -17 28 -20 42 -13 55 28 74 34 91 27 15 -6 10 -10
-25 -23 -23 -9 -41 -20 -39 -25 1 -5 6 -8 10 -7 4 0 15 -6 24 -15 9 -10 22
-13 32 -9 33 14 64 17 57 6 -4 -6 -13 -9 -20 -6 -12 4 -12 -2 -5 -37 6 -23 8
-48 5 -56 -3 -7 -1 -13 4 -13 5 0 20 -11 33 -24 20 -20 22 -27 12 -55 -6 -18
-14 -29 -18 -25 -4 4 -7 3 -7 -3 0 -5 11 -15 25 -21 15 -7 25 -20 25 -32 0
-23 18 -27 26 -5 5 13 54 18 54 5 -1 -14 -19 -32 -28 -26 -13 8 -47 -25 -35
-33 5 -3 12 -14 16 -23 3 -10 14 -18 22 -18 9 0 13 -5 10 -10 -4 -7 2 -9 19
-4 17 4 26 2 26 -6 0 -6 -4 -9 -9 -5 -10 6 -75 -29 -102 -55 -22 -21 -39 -55
-39 -79 0 -11 -9 -22 -21 -26 -19 -6 -20 -9 -6 -22 14 -14 13 -18 -8 -41 -17
-18 -21 -30 -14 -38 7 -8 -2 -13 -33 -18 -23 -4 -47 -11 -53 -15 -5 -5 -30
-11 -55 -15 -24 -4 -50 -12 -57 -18 -25 -21 -13 -29 33 -22 37 5 46 4 42 -7
-3 -8 -9 -14 -14 -15 -5 0 -16 -3 -24 -7 -8 -3 -22 -5 -30 -5 -13 -1 -68 -15
-140 -37 -44 -13 -6 16 52 41 41 17 52 27 50 42 -4 27 11 35 111 66 75 23 87
30 87 49 -1 26 -22 57 -40 57 -9 0 -11 13 -6 50 5 40 4 52 -9 56 -17 7 -20 39
-5 49 6 4 19 23 29 43 15 30 17 46 10 90 -9 59 -15 83 -34 127 -7 17 -18 49
-25 73 -9 30 -18 41 -28 37 -7 -3 -25 -5 -38 -5 -15 0 -24 -6 -24 -15 0 -15
-6 -17 -65 -19 -28 -1 -30 -4 -32 -41 -1 -37 -1 -38 7 -10 l8 30 1 -28 c1 -24
4 -27 22 -22 15 5 19 4 15 -4 -4 -6 -13 -11 -21 -11 -52 0 9 -81 83 -111 40
-16 52 -26 48 -38 -18 -57 -19 -64 -8 -57 23 14 12 -37 -18 -91 -17 -30 -28
-58 -25 -63 4 -6 19 -10 35 -10 17 0 30 -7 34 -16 4 -9 5 -17 4 -18 -2 -1 -13
-7 -25 -13 -13 -7 -30 -13 -38 -13 -8 0 -15 -4 -15 -10 0 -5 -10 -10 -21 -10
-18 0 -19 -2 -9 -15 10 -12 10 -15 -1 -16 -8 0 -3 -5 10 -10 28 -11 25 -16
-18 -29 -26 -7 -33 -6 -38 8 -4 9 -14 22 -22 29 -13 9 -20 8 -37 -8 -14 -13
-23 -16 -26 -9 -2 6 -12 11 -23 10 -11 0 -33 -1 -50 -1 -16 0 -37 -7 -45 -14
-8 -7 -24 -15 -35 -17 -15 -3 -19 -10 -17 -31 2 -24 1 -26 -20 -18 -13 5 -35
12 -50 15 -16 4 -28 12 -28 20 0 7 -7 19 -15 26 -22 18 -18 30 10 30 23 0 25
4 25 44 0 25 -5 48 -10 51 -7 4 -7 12 0 25 7 13 6 21 -4 29 -11 10 -16 8 -21
-8 -4 -14 -15 -21 -32 -21 -22 0 -24 -3 -18 -22 9 -33 13 -98 6 -103 -9 -5
-71 34 -71 45 0 15 -41 19 -47 4 -10 -26 -23 -14 -23 22 0 47 -29 43 -44 -6
l-10 -35 -4 38 c-4 42 -2 41 -37 25 -23 -10 -26 -17 -23 -52 1 -24 -2 -41 -10
-44 -6 -2 -12 -13 -13 -25 0 -12 -3 -17 -5 -10 -3 7 -11 10 -18 7 -8 -3 -16 2
-19 10 -5 11 0 16 13 16 17 0 20 7 20 41 0 31 -8 51 -31 80 -32 40 -51 44 -42
9 3 -11 1 -20 -3 -21 -5 0 -19 -2 -31 -5 -13 -2 -23 1 -23 6 0 6 5 10 10 10 7
0 7 6 0 19 -14 28 -15 27 40 29 27 0 58 6 70 12 11 6 24 8 29 6 9 -6 -3 61
-12 70 -2 2 -14 1 -27 -4 -26 -9 -70 -4 -70 8 0 5 -9 6 -20 3 -14 -4 -20 0
-20 12 0 9 9 19 20 22 11 3 20 12 20 19 0 10 13 14 39 14 29 0 41 5 45 18 10
31 6 37 -22 34 -15 -2 -35 3 -46 11 -17 12 -17 16 -4 43 11 24 19 29 48 27 22
-1 39 5 47 15 18 24 16 32 -9 32 -13 0 -30 5 -38 10 -12 8 -13 13 -2 30 17 28
15 57 -5 64 -10 3 -25 11 -34 17 -9 7 -25 9 -35 5 -13 -5 -15 -9 -7 -14 19
-12 -48 -61 -71 -52 -18 6 -18 7 -2 13 13 5 17 15 14 32 -4 21 -1 25 18 25 14
0 22 5 19 13 -2 6 2 21 10 31 11 14 18 16 28 8 10 -9 19 -8 38 4 l24 16 -23
-21 c-19 -16 -21 -24 -12 -40 8 -16 17 -19 40 -15 25 6 30 3 35 -19 7 -27 30
-42 47 -31 5 3 8 15 5 25 -6 23 24 34 53 19 15 -8 20 -21 20 -52 0 -39 1 -40
29 -35 25 5 30 3 33 -18 7 -32 2 -35 -44 -35 -64 0 -80 -24 -76 -109 2 -42 -1
-73 -7 -75 -5 -1 -2 -13 9 -24 15 -18 22 -19 40 -10 42 21 76 61 76 90 0 15 5
28 10 28 6 0 10 -14 10 -31 l0 -31 30 29 c37 34 41 73 7 73 -13 0 -29 -6 -36
-12 -10 -11 -10 -8 -3 12 5 14 19 26 31 28 12 2 26 14 31 27 12 32 31 35 56 8
14 -16 29 -22 45 -19 13 3 28 5 33 5 5 1 -3 13 -18 27 -14 15 -26 31 -26 36 0
5 -25 6 -59 2 -38 -4 -61 -3 -65 5 -7 10 19 59 38 72 5 4 5 12 2 18 -4 7 1 11
13 11 11 0 25 9 31 19 14 27 13 31 -7 31 -15 0 -15 1 0 18 31 34 12 58 -23 29
-22 -18 -43 -63 -36 -76 4 -7 -1 -11 -13 -11 -23 0 -28 -15 -8 -23 7 -4 6 -6
-4 -6 -9 -1 -19 -8 -23 -16 -7 -19 -25 -19 -32 -1 -3 8 4 24 15 35 16 16 21
34 21 75 0 59 -12 77 -30 49 -10 -15 -11 -14 -7 9 2 15 0 25 -4 22 -17 -10 -9
13 11 31 13 11 29 16 47 12 49 -9 75 15 28 27 -30 8 -31 17 -5 41 13 11 29 16
47 12 49 -9 75 15 28 27 -28 7 -33 21 -9 30 8 3 12 11 9 16 -5 8 9 9 44 4 50
-6 63 0 40 23 -8 8 -5 17 11 33 19 19 26 21 42 11 14 -9 24 -8 45 2 16 9 22
17 14 21 -6 4 -11 12 -11 18 0 5 15 1 34 -10 25 -15 33 -17 29 -6 -3 8 -9 14
-14 14 -5 0 -9 5 -9 11 0 8 16 10 50 5 41 -6 50 -4 50 9 0 22 28 18 35 -5 3
-11 11 -20 16 -20 6 0 6 7 -1 19 -13 25 1 35 33 25 12 -4 29 -7 38 -6 8 2 21
-9 27 -23 10 -21 15 -23 37 -15 14 5 25 7 25 5 0 -3 0 -8 0 -12 0 -5 -3 -9 -7
-9 -34 -6 -53 -19 -53 -35 0 -21 -2 -20 112 -23 51 0 78 3 78 10 0 7 16 10 43
8 64 -5 107 -15 107 -26 0 -23 167 -72 220 -63 99 15 118 15 124 -2 4 -9 4
-24 0 -35 -4 -14 2 -22 30 -33 19 -8 39 -21 43 -28 4 -8 15 -17 23 -21 14 -6
7 -5 -62 10 -19 5 -28 2 -28 -6 0 -7 8 -10 20 -7 11 3 20 1 20 -4 0 -12 -57
-12 -65 0 -3 5 -1 12 5 16 13 8 13 35 0 35 -6 0 -14 -8 -17 -17 -4 -10 -15
-25 -25 -33 -14 -12 -16 -21 -10 -45 7 -25 13 -30 35 -27 27 3 38 -13 15 -21
-10 -3 -10 -8 1 -21 8 -9 20 -15 27 -12 7 3 16 1 19 -4 8 -13 25 -13 25 -1 0
5 -6 16 -13 23 -8 7 -12 19 -9 26 2 6 -5 15 -15 19 -21 7 -54 39 -47 45 11 12
63 -6 67 -23 4 -14 14 -19 39 -19 28 -1 31 -2 17 -13 -18 -14 -14 -32 13 -61
20 -22 24 -15 7 15 -8 16 -7 25 5 38 21 23 20 31 -4 31 -11 0 -20 2 -20 4 0 2
-3 11 -6 20 -5 13 1 16 25 16 17 0 30 -3 30 -7 -4 -23 3 -33 22 -33 15 0 19
-5 15 -15 -7 -20 3 -45 19 -45 8 0 11 8 8 19 -3 11 2 21 11 24 23 9 20 26 -6
37 -13 5 -17 9 -8 9 9 1 24 24 36 55 l21 54 -71 15 c-38 9 -74 13 -78 11 -4
-3 -8 -1 -8 4 0 5 -18 15 -39 22 -26 8 -38 17 -34 26 3 8 1 14 -5 14 -6 0 -12
-5 -14 -11 -3 -8 -25 -5 -72 11 -37 12 -76 20 -87 17 -10 -3 -19 -1 -19 4 0
16 -18 9 -23 -8 -4 -15 -5 -14 -6 3 -1 15 -12 24 -43 33 -24 7 -51 17 -61 22
-11 6 -25 6 -37 -1 -16 -9 -20 -8 -20 5 0 11 -12 15 -47 17 -27 1 -57 3 -68 4
-11 1 -48 2 -81 3 -53 1 -62 4 -67 21 -3 12 1 24 11 30 15 8 15 11 2 19 -8 5
-17 8 -21 5 -4 -2 -10 4 -13 13 -6 15 -8 15 -16 3 -8 -13 -10 -13 -10 2 0 9
-6 19 -12 21 -10 4 -10 8 0 15 11 7 10 11 -5 17 -17 7 -17 8 2 15 11 4 31 7
45 7 14 0 20 -2 13 -4z m1660 -557 c15 -4 31 -14 34 -24 4 -9 15 -28 25 -41
17 -23 16 -41 -3 -41 -5 0 -9 7 -9 15 0 19 -14 19 -33 1 -7 -8 -29 -16 -48
-18 -32 -3 -34 -1 -34 26 0 16 -5 31 -12 33 -7 3 -10 -3 -6 -16 5 -21 -23 -44
-69 -55 -40 -9 -34 8 8 23 34 12 36 15 29 49 -6 32 -5 34 9 23 19 -16 41 -2
51 30 5 14 11 17 18 11 7 -5 25 -12 40 -16z m-2799 -141 c-6 -23 -4 -25 30
-25 26 0 36 -4 36 -16 0 -9 -9 -18 -20 -21 -37 -10 -23 -33 19 -33 31 0 41 4
46 20 7 23 45 48 45 30 0 -6 5 -8 10 -5 6 3 10 0 10 -9 0 -8 6 -17 13 -20 6
-3 -6 -3 -27 1 -26 4 -37 2 -32 -5 3 -6 1 -14 -5 -17 -6 -5 -8 -20 -5 -41 5
-23 1 -44 -14 -71 -11 -21 -20 -46 -20 -55 0 -17 -19 -27 -21 -10 -6 84 -6 84
17 93 31 11 32 47 2 53 -61 13 -133 12 -147 -1 -11 -12 -15 -12 -22 -1 -7 10
-14 10 -36 -4 -15 -9 -27 -24 -25 -32 2 -10 -2 -14 -12 -10 -16 6 -40 -55 -33
-83 4 -14 5 -14 6 3 2 35 25 47 73 39 53 -9 102 -43 105 -72 2 -13 -2 -23 -7
-23 -5 0 -7 -13 -3 -30 4 -23 2 -30 -10 -30 -8 0 -20 -6 -27 -14 -9 -12 -6
-16 23 -21 31 -6 35 -11 41 -46 4 -22 11 -48 16 -57 5 -9 18 -39 30 -66 14
-35 24 -46 31 -39 8 8 7 17 -2 31 -18 29 0 42 18 15 9 -13 24 -23 34 -23 11 0
19 -5 19 -10 0 -6 -11 -8 -25 -4 -35 9 -32 -10 10 -61 19 -23 31 -46 27 -49
-3 -4 -1 -11 6 -15 19 -11 4 -94 -15 -87 -8 3 -24 -4 -36 -15 -17 -15 -30 -19
-56 -15 -29 4 -32 3 -28 -13 3 -13 -3 -22 -20 -30 -33 -15 -42 -14 -37 7 2 9
-2 24 -9 33 -13 17 -97 33 -97 18 0 -5 -9 -9 -20 -9 -11 0 -20 -3 -20 -8 0 -4
9 -13 20 -20 11 -7 20 -19 20 -28 0 -14 -5 -13 -32 5 -18 11 -32 25 -31 31 2
5 -2 10 -7 10 -11 0 -14 30 -2 31 4 0 23 2 42 5 19 2 47 4 63 4 32 0 32 1 11
41 -8 17 -14 35 -12 41 2 6 12 -7 22 -29 18 -41 61 -79 50 -45 -5 16 -5 16 9
0 15 -19 32 -25 22 -8 -13 21 -15 96 -3 117 20 40 -11 106 -76 161 -22 18 -26
15 -26 -18 0 -16 -5 -30 -10 -30 -27 0 -79 30 -85 50 -4 12 -9 20 -11 17 -10
-10 19 -65 39 -75 14 -7 16 -11 7 -11 -23 -1 -45 20 -68 63 -21 39 -18 65 8
81 15 9 12 25 -5 25 -13 0 -13 3 -3 19 10 17 9 23 -6 40 -18 20 -18 23 3 88
23 73 51 134 64 144 5 3 8 10 8 15 -1 5 4 10 9 10 23 3 24 5 10 15 -12 9 -11
10 5 4 23 -8 26 -9 83 -7 l43 2 -16 30 c-16 31 -45 41 -45 15 0 -9 -9 -15 -22
-15 -20 1 -21 2 -7 13 9 7 16 23 15 37 -1 21 3 25 25 22 14 -2 31 4 39 12 18
22 21 20 14 -9z m-654 -405 c0 -11 -5 -20 -11 -20 -6 0 -9 7 -5 15 6 18 -5 20
-21 4 -9 -9 -9 -16 0 -31 8 -12 9 -21 2 -26 -14 -10 -35 -49 -29 -55 2 -2 25
-3 49 -1 42 4 45 2 43 -21 -1 -14 -6 -25 -11 -25 -4 0 -6 -4 -3 -9 3 -5 -11
-8 -31 -6 -21 1 -27 0 -14 -2 16 -3 20 -7 12 -12 -18 -12 -3 -57 25 -76 31
-20 43 -13 40 26 l-2 31 18 -24 18 -23 -10 34 c-5 19 -8 37 -5 39 3 3 0 11 -7
19 -8 11 -6 18 10 33 12 11 28 36 38 55 14 30 14 38 3 52 -12 15 -12 16 6 9
41 -17 55 -18 85 -7 32 11 80 0 80 -18 0 -6 -7 -8 -16 -4 -13 5 -15 2 -9 -18
5 -13 9 -38 9 -56 2 -36 30 -73 58 -73 10 0 18 -4 18 -9 0 -5 2 -24 5 -42 l6
-34 -14 30 c-13 29 -14 27 -13 -42 1 -61 -2 -74 -19 -87 -20 -15 -40 -12 -29
5 3 5 10 6 16 3 13 -8 0 55 -14 74 -6 6 -22 12 -35 12 -23 0 -24 -2 -19 -42 6
-41 -2 -34 -18 15 -6 18 -33 34 -42 24 -3 -2 4 -27 14 -54 18 -49 18 -50 0
-62 -10 -6 -18 -22 -18 -35 0 -14 -5 -28 -11 -31 -5 -4 -14 -18 -19 -31 -5
-13 -17 -24 -26 -24 -10 0 -14 5 -10 15 3 8 1 15 -4 15 -6 0 -10 5 -10 10 0 6
9 10 20 10 23 0 23 -2 9 39 -6 17 -8 39 -3 49 11 25 11 36 2 49 -6 7 -2 13 10
17 19 7 61 85 54 104 -3 9 -9 9 -24 1 -11 -6 -17 -17 -14 -24 2 -7 -6 -20 -18
-29 -29 -18 -43 -65 -24 -78 9 -7 8 -8 -4 -4 -10 3 -18 1 -18 -4 0 -6 -10 -10
-22 -10 -19 0 -20 -2 -8 -10 13 -9 7 -14 -12 -11 -12 2 -10 -13 7 -53 8 -20
20 -36 27 -36 6 0 9 -3 5 -6 -12 -12 -42 15 -53 48 -7 22 -17 33 -30 33 -24 0
-36 16 -23 32 6 7 7 18 3 25 -6 10 -3 9 9 -1 10 -8 17 -9 17 -3 0 7 13 9 35 5
29 -5 35 -2 35 12 0 14 -9 16 -60 13 -59 -3 -59 -3 -45 19 18 27 19 67 3 81
-7 5 -24 12 -38 14 l-25 3 25 23 c18 17 34 22 58 20 22 -3 32 0 32 10 0 10
-14 13 -57 12 -78 -3 -81 -2 -57 18 27 22 50 85 33 91 -16 5 31 40 54 41 10 0
17 -8 17 -20z m3000 11 c0 -4 16 -11 35 -14 36 -6 69 -29 58 -41 -4 -3 1 -6
11 -6 9 0 14 -4 11 -10 -3 -5 -21 -10 -39 -10 -19 0 -39 -7 -46 -15 -14 -17
-35 -21 -25 -5 3 6 3 10 -2 11 -4 0 -20 2 -35 4 -19 3 -27 -2 -31 -16 -3 -11
-22 -26 -42 -34 -20 -9 -38 -22 -42 -31 -3 -9 -12 -12 -25 -8 -10 3 -25 0 -33
-6 -8 -7 -21 -10 -30 -6 -8 3 -14 0 -12 -6 2 -12 -83 -30 -136 -28 -28 0 -64
-19 -106 -57 -25 -24 -51 -30 -51 -13 0 5 9 14 21 20 16 9 19 18 14 37 -6 24
-5 25 34 18 24 -4 41 -2 46 4 3 6 19 11 35 11 16 0 32 5 35 10 4 6 -18 9 -62
8 -37 -1 -73 1 -80 5 -6 4 -14 3 -18 -3 -10 -16 -68 -13 -62 4 3 7 0 19 -6 26
-10 10 1 11 53 4 76 -9 188 -12 212 -6 9 2 14 10 11 18 -3 8 1 14 11 14 14 0
20 -12 17 -32 0 -5 6 -8 15 -8 11 0 14 5 10 16 -5 13 -2 15 16 9 45 -14 82 -6
136 29 46 32 47 33 28 59 -18 23 -28 22 -55 -9 -14 -16 -28 -23 -39 -19 -30
11 -103 18 -101 9 1 -5 1 -16 0 -24 -1 -13 -2 -13 -11 0 -15 23 -12 30 14 40
15 5 37 5 57 0 28 -8 39 -5 82 21 32 20 59 29 74 26 13 -2 26 0 29 4 7 12 24
12 24 0z m-1169 -658 c56 -17 89 -38 89 -57 0 -6 -5 -5 -12 2 -14 14 -48 16
-48 3 0 -5 9 -11 19 -14 16 -4 19 -11 15 -36 -4 -25 -2 -30 11 -25 8 4 22 1
29 -5 11 -9 16 -9 22 0 4 7 3 14 -3 16 -22 8 -48 32 -41 39 5 4 17 -1 28 -11
16 -15 22 -16 35 -5 12 10 21 10 42 1 22 -10 24 -14 12 -22 -7 -5 -22 -9 -32
-9 -32 0 -33 -31 -1 -57 l29 -25 -32 7 c-29 6 -33 4 -33 -14 0 -11 12 -28 26
-37 18 -12 24 -23 20 -38 -4 -17 1 -23 29 -32 32 -10 35 -9 35 8 0 18 1 18 16
4 8 -9 19 -16 24 -16 5 0 7 -7 4 -15 -4 -8 -14 -15 -24 -15 -10 0 -22 -6 -29
-13 -8 -11 -4 -13 20 -9 l31 5 -3 -64 -4 -64 33 -3 c31 -3 46 -22 17 -22 -21
0 -19 -33 5 -63 26 -32 25 -51 -2 -77 -30 -27 -39 -25 -27 7 6 17 6 30 0 36
-7 7 -12 5 -17 -6 -3 -9 -13 -17 -21 -17 -13 0 -13 -2 -2 -16 12 -15 11 -16
-9 -10 -16 5 -24 3 -28 -8 -3 -9 -11 -16 -17 -16 -7 0 -31 -8 -54 -17 -35 -15
-43 -23 -43 -43 0 -14 4 -20 8 -14 4 6 20 14 36 18 26 6 27 6 12 -10 -10 -9
-14 -24 -11 -35 5 -14 1 -19 -14 -19 -11 0 -23 5 -26 10 -4 6 -12 10 -18 9
-24 -3 -37 1 -37 12 0 5 4 8 9 5 5 -3 11 1 15 9 9 25 -11 26 -53 4 -28 -14
-41 -28 -41 -42 0 -16 -3 -18 -12 -9 -7 7 -12 29 -11 50 l1 37 -8 -35 c-12
-51 -73 -96 -64 -47 3 17 2 17 -6 -4 -6 -15 -19 -29 -28 -32 -9 -3 -24 -8 -33
-11 -13 -6 -16 -2 -13 21 3 25 2 24 -12 -8 -14 -32 -47 -59 -74 -59 -4 0 -6
17 -3 38 3 25 0 44 -8 53 -21 22 -39 57 -39 74 0 9 23 26 57 40 l56 25 24 -22
c25 -23 44 -18 23 7 -14 17 -7 45 12 45 7 0 30 9 50 19 19 11 39 17 42 14 3
-4 12 2 20 12 8 12 20 16 35 12 16 -4 21 -1 21 13 0 10 8 20 18 24 9 3 23 9
31 12 9 4 11 2 7 -5 -4 -6 -2 -19 3 -28 7 -12 10 -14 11 -4 0 11 3 11 15 1 17
-14 19 -7 5 20 -9 17 -3 23 45 45 30 15 55 30 55 33 0 4 3 17 6 30 4 13 2 22
-5 22 -6 0 -11 -6 -11 -14 0 -24 -25 -37 -53 -27 -23 9 -24 12 -16 53 15 78
16 77 -53 80 -57 3 -63 5 -60 23 2 11 6 34 9 51 4 25 1 32 -16 37 -18 4 -19 9
-10 42 12 44 6 65 -19 65 -10 0 -22 3 -26 7 -11 11 -51 11 -59 -1 -5 -6 -7 9
-4 34 2 32 -1 48 -12 57 -12 9 -12 12 -3 13 7 0 10 5 7 10 -10 16 57 12 116
-7z m1403 -67 c12 -8 28 -32 35 -55 10 -34 16 -41 37 -41 25 0 64 -18 76 -34
6 -10 1 -23 -22 -56 -9 -13 -13 -11 -31 10 -11 14 -18 19 -14 13 4 -9 -1 -13
-15 -13 -11 0 -44 22 -73 50 -28 27 -55 50 -59 50 -3 0 0 -13 8 -30 9 -16 20
-30 26 -30 6 0 16 -8 23 -17 11 -15 9 -22 -8 -44 -12 -15 -33 -41 -47 -57 -21
-27 -26 -29 -40 -18 -8 7 -22 16 -30 19 -8 4 2 5 24 4 32 -2 42 3 60 26 l21
29 -35 29 c-33 28 -33 29 -15 44 19 14 19 14 -4 15 -14 0 -33 -8 -43 -17 -18
-16 -18 -16 -12 0 8 21 -9 22 -26 2 -11 -13 -10 -18 2 -28 22 -19 45 -61 41
-74 -7 -19 -30 -16 -46 7 -7 10 -37 38 -65 60 -31 25 -52 50 -52 62 0 15 5 18
19 13 17 -5 21 0 26 40 7 44 27 60 38 31 8 -20 94 -31 114 -14 9 7 18 12 20
11 10 -8 33 -1 33 9 0 6 -3 8 -6 5 -8 -8 -44 11 -44 23 0 11 55 -4 84 -24z
m-547 -22 c1 -20 4 -38 7 -41 2 -2 26 -10 53 -17 46 -13 47 -14 21 -21 -40
-10 -35 -31 10 -41 46 -10 73 -7 109 11 36 19 47 19 39 0 -3 -8 -2 -14 2 -13
14 4 72 -21 72 -31 0 -5 14 -23 31 -39 30 -28 31 -30 13 -40 -16 -8 -26 -4
-54 20 -22 19 -31 31 -22 35 26 11 10 23 -30 21 -27 0 -50 -8 -60 -19 -21 -22
-23 -29 -5 -29 17 0 49 -72 37 -84 -13 -13 -41 1 -47 23 -3 11 -11 17 -18 15
-6 -3 -20 6 -29 20 -9 15 -21 26 -26 26 -14 0 15 -50 39 -66 26 -19 27 -36 1
-59 -11 -10 -20 -23 -20 -30 0 -16 -24 -65 -32 -65 -18 0 -15 20 7 53 14 20
25 40 25 46 0 5 -15 21 -32 35 -32 25 -32 26 -13 40 20 15 20 15 -4 16 -14 0
-33 -8 -43 -17 -18 -16 -18 -16 -12 0 9 24 -8 21 -30 -4 -16 -19 -16 -23 -3
-31 9 -4 21 -24 27 -42 12 -36 4 -106 -11 -106 -5 0 -9 -10 -9 -21 0 -18 -3
-19 -14 -9 -13 10 -12 16 5 43 21 35 25 52 9 42 -5 -3 -15 5 -22 19 -6 14 -16
26 -23 26 -19 0 -94 90 -88 106 6 16 23 19 23 4 0 -6 13 -4 30 5 16 8 35 15
43 15 22 0 67 24 67 36 0 7 -8 22 -18 34 -15 18 -21 20 -46 10 -17 -6 -33 -7
-40 -1 -13 10 -44 9 -98 -3 -21 -5 -54 -5 -73 -2 -29 6 -35 11 -35 33 0 20 4
24 20 20 11 -3 22 -1 26 4 3 5 15 3 27 -5 33 -21 132 -27 170 -11 24 10 32 20
32 39 1 16 -6 28 -17 32 -10 3 -18 14 -18 24 0 13 5 17 14 14 8 -3 17 -1 21 5
9 16 10 15 12 -25z m-262 -188 c-21 -32 -11 -48 29 -46 45 3 78 -10 72 -27 -4
-9 6 -19 29 -29 19 -8 35 -20 35 -27 0 -6 14 -24 32 -38 l32 -27 -38 -43 c-20
-24 -39 -54 -42 -66 -4 -13 -10 -23 -15 -23 -16 0 -10 20 16 54 32 42 32 49
-7 85 -28 26 -30 31 -15 37 9 3 17 10 17 15 0 16 -26 10 -54 -12 -19 -15 -24
-16 -20 -5 4 11 1 16 -10 16 -9 0 -16 4 -16 9 0 5 -7 17 -16 25 -14 15 -14 16
3 17 10 0 1 7 -19 16 -43 17 -49 43 -22 81 22 31 30 20 9 -12z m988 -35 c-27
-23 -28 -28 -6 -33 12 -2 11 -6 -8 -15 -13 -6 -33 -14 -44 -18 -12 -4 -15 -9
-8 -13 6 -4 -9 -7 -33 -8 -24 0 -41 3 -38 8 8 13 -16 9 -30 -5 -7 -7 -11 -17
-9 -23 4 -11 -64 -44 -90 -44 -10 0 -17 -4 -17 -10 0 -5 -19 -15 -42 -22 -24
-6 -45 -15 -48 -19 -3 -4 -31 -16 -62 -27 -47 -17 -58 -18 -58 -6 0 8 -4 14
-10 14 -5 0 -9 -11 -8 -26 2 -21 6 -24 25 -19 14 3 23 1 23 -6 0 -8 -14 -9
-44 -5 -25 4 -47 3 -50 -3 -3 -5 -31 -17 -61 -26 -30 -10 -55 -22 -55 -26 0
-5 -8 -9 -19 -9 -10 0 -31 -7 -47 -14 -15 -8 -31 -13 -35 -11 -4 3 -10 -2 -13
-11 -4 -12 -1 -14 14 -9 11 4 20 2 20 -4 0 -12 -5 -13 -82 -20 -15 -1 -18 -11
-18 -52 0 -45 -2 -49 -15 -35 -9 8 -14 20 -13 27 3 13 -70 15 -109 4 -16 -5
-23 -2 -28 14 -4 14 -14 20 -28 18 -13 -1 -21 3 -20 11 2 6 -3 12 -11 12 -9 0
-12 -7 -9 -20 3 -12 2 -20 -3 -19 -20 3 -24 -2 -14 -21 12 -22 32 -28 25 -7
-3 7 4 13 20 13 14 1 25 -2 25 -7 0 -5 -6 -9 -14 -9 -7 0 -19 -7 -26 -15 -11
-13 -9 -15 13 -15 13 0 30 7 37 15 18 22 37 18 44 -7 6 -26 -10 -49 -19 -26
-9 24 -80 8 -79 -17 0 -17 -7 -20 -45 -20 -35 0 -46 -4 -45 -16 1 -11 -6 -14
-27 -11 -17 2 -40 -3 -54 -12 -28 -19 -60 -22 -49 -4 5 7 3 8 -5 4 -7 -5 -17
-1 -24 9 -11 14 -17 14 -42 4 -17 -6 -40 -13 -52 -15 -18 -2 -63 -20 -108 -42
-5 -3 -1 5 10 17 11 13 19 32 17 42 -3 18 2 19 50 15 64 -6 82 3 76 38 -6 28
1 33 20 14 9 -9 16 -7 31 6 12 11 21 14 26 7 11 -19 36 -12 64 18 19 20 32 27
41 21 21 -13 50 7 50 34 0 13 -7 27 -16 30 -13 5 -14 9 -4 22 9 10 17 11 23 5
13 -13 47 4 47 23 0 10 10 12 43 6 26 -5 47 -4 54 2 7 6 20 7 29 4 8 -3 25 1
37 9 14 10 33 13 54 9 18 -3 33 -2 33 3 0 5 16 7 35 5 28 -3 35 -1 35 13 0 9
9 19 20 22 11 3 20 10 20 16 0 8 3 8 11 0 13 -13 47 -3 79 24 11 10 35 18 53
18 24 0 35 6 42 23 6 13 19 22 32 22 12 0 24 4 27 9 3 4 17 6 32 3 37 -7 83
42 66 69 -15 24 -15 39 0 39 6 0 19 7 29 16 11 10 19 12 24 5 3 -6 -5 -15 -20
-21 -30 -11 -31 -36 -2 -54 15 -9 22 -7 36 10 9 12 27 25 39 28 12 4 22 11 22
16 0 6 19 7 43 4 38 -5 44 -3 65 25 20 27 26 30 44 20 17 -9 25 -7 47 9 14 12
40 21 56 21 l30 0 -22 -18z m-2937 -268 c10 -10 19 -29 19 -43 0 -18 6 -26 22
-28 24 -4 53 -31 34 -33 -6 -1 -17 -2 -23 -3 -7 -1 -21 8 -31 19 -18 19 -18
19 -1 -12 10 -18 21 -30 26 -27 4 3 8 1 8 -5 0 -6 8 -7 17 -4 12 5 15 2 10
-10 -3 -9 -2 -17 3 -17 6 0 10 -12 10 -27 1 -29 75 -123 82 -104 4 12 58 2 58
-11 0 -6 -11 -8 -25 -6 -21 4 -23 3 -13 -9 6 -8 17 -12 25 -9 7 3 31 -10 52
-29 26 -24 54 -38 86 -44 61 -11 84 -32 29 -26 -35 4 -36 3 -9 -4 17 -5 49 -9
72 -10 34 -1 41 2 37 14 -4 8 -1 15 4 15 21 0 22 -20 2 -40 -11 -11 -20 -28
-19 -37 0 -15 2 -15 9 2 7 17 9 17 9 3 1 -25 40 -23 68 4 13 12 23 26 23 32 0
6 12 20 27 30 14 11 23 15 20 9 -4 -6 0 -16 7 -22 18 -15 30 1 21 29 -5 17 1
23 30 36 21 8 43 13 51 10 7 -3 17 1 21 9 5 7 24 17 43 22 31 9 35 13 33 41
-2 23 3 34 17 42 11 6 19 17 18 23 -2 7 1 14 7 16 10 3 104 -174 105 -197 0
-16 -24 -10 -26 6 -1 7 -2 17 -3 23 0 6 -8 3 -17 -5 -19 -20 -24 -20 -38 -1
-9 13 -17 14 -44 4 -24 -8 -36 -8 -46 1 -11 8 -16 8 -23 -3 -4 -7 -18 -20 -31
-29 -19 -13 -20 -17 -8 -27 11 -9 20 -9 34 -2 16 9 21 7 25 -10 3 -11 15 -23
26 -26 28 -7 26 -19 -4 -47 -14 -13 -25 -31 -25 -40 0 -9 -7 -33 -15 -53 -12
-27 -18 -33 -28 -25 -10 9 -19 7 -35 -4 -21 -14 -22 -14 -22 8 -1 22 -1 22
-15 4 -13 -17 -15 -17 -40 10 -14 15 -24 33 -21 40 3 7 -5 20 -16 31 -15 13
-22 15 -25 5 -3 -6 -22 -15 -43 -18 -49 -8 -60 -38 -22 -58 34 -18 64 -54 57
-66 -4 -6 -17 -10 -30 -10 -28 0 -28 -23 1 -46 18 -15 18 -15 -6 -10 -14 3
-30 6 -36 6 -6 0 -9 12 -6 29 4 30 4 30 -39 26 -59 -6 -86 2 -94 28 l-8 22 -4
-22 c-5 -27 -6 -27 -58 -9 -35 13 -40 17 -37 42 2 15 11 39 20 52 15 22 14 25
-3 35 -11 6 -30 21 -43 34 -20 20 -26 22 -40 11 -10 -7 -21 -19 -25 -25 -4 -7
-16 -17 -27 -23 -16 -8 -26 1 -75 75 -46 70 -55 88 -45 100 7 8 20 15 30 15
10 0 28 8 40 18 21 17 22 18 3 41 -14 17 -25 22 -41 17 -12 -4 -22 -14 -22
-21 0 -16 -40 -46 -52 -39 -4 3 -8 13 -8 22 0 13 2 14 9 3 6 -9 11 -10 15 -2
7 11 -5 15 -31 12 -18 -2 -34 34 -21 47 8 8 5 9 -9 6 -16 -5 -24 3 -39 38 -10
24 -20 46 -22 50 -2 4 10 14 27 22 28 15 30 15 26 -4 -5 -24 21 -26 50 -4 17
13 18 17 6 36 -10 15 -10 22 -1 28 6 4 10 20 8 36 -4 37 -46 48 -55 14 l-6
-21 -19 21 c-19 21 -19 22 -2 35 26 20 67 18 90 -2z m1383 -367 c9 -10 6 -17
-13 -30 -14 -9 -29 -16 -35 -16 -5 0 -35 -13 -67 -29 -33 -16 -70 -32 -84 -36
-14 -4 -27 -11 -30 -14 -7 -10 -76 -41 -89 -41 -6 0 -11 -3 -11 -8 0 -4 -10
-12 -22 -17 -12 -6 -24 -16 -26 -24 -3 -10 4 -12 29 -7 l34 6 -35 -16 c-19 -9
-39 -22 -43 -30 -4 -8 -18 -14 -30 -14 -12 0 -28 -9 -35 -20 -7 -12 -17 -18
-22 -15 -15 9 -51 -5 -44 -17 4 -6 0 -14 -7 -19 -8 -4 -16 -4 -19 2 -9 13 -91
-48 -97 -72 -3 -11 -14 -19 -27 -19 -26 0 -46 -18 -40 -35 3 -7 -2 -15 -12
-19 -12 -5 -15 -2 -10 11 5 16 5 16 -6 2 -7 -8 -39 -34 -70 -58 -32 -24 -58
-46 -58 -49 0 -3 5 -1 12 6 17 17 33 15 18 -3 -7 -8 -21 -15 -31 -15 -10 0
-22 -7 -27 -16 -5 -8 -20 -21 -33 -28 -13 -7 -23 -18 -22 -24 4 -16 -12 -15
-26 2 -6 8 -32 17 -56 20 -34 6 -56 18 -91 50 -44 42 -45 44 -24 51 17 5 30
-1 56 -26 31 -30 40 -33 84 -31 44 2 54 7 94 47 25 25 52 45 61 45 8 0 15 4
15 10 0 18 355 269 433 306 38 18 50 41 35 68 -9 16 2 23 16 9 8 -8 84 -13
109 -6 10 3 17 14 17 29 0 23 3 24 59 24 57 0 73 8 77 35 0 6 2 16 2 23 1 8
10 10 26 6 13 -3 27 -1 30 5 10 15 21 14 35 -3z"/>
<path d="M2974 3215 c-3 -8 -3 -19 1 -25 8 -12 -7 -13 -20 -1 -6 5 -20 12 -33
16 -20 6 -22 4 -17 -18 5 -16 -2 -42 -20 -76 -28 -56 -26 -75 8 -66 12 2 16 2
10 -1 -17 -8 -16 -24 1 -24 8 0 16 -7 20 -15 3 -9 18 -15 34 -15 36 0 63 -27
42 -40 -7 -5 -15 -16 -16 -25 -2 -13 2 -15 19 -10 54 18 107 0 107 -35 0 -15
5 -16 39 -7 33 9 41 17 51 48 12 35 11 39 -24 84 -33 44 -40 62 -33 83 1 4 7
5 12 3 6 -1 22 -4 37 -5 30 -2 51 -16 25 -16 -9 0 -17 -4 -17 -10 0 -5 9 -10
20 -10 28 0 27 38 -2 49 -22 8 -21 8 7 22 38 19 51 64 23 83 -22 15 -59 10
-71 -11 -6 -9 -30 -13 -82 -12 -41 1 -73 5 -70 9 3 5 2 15 -1 24 -8 20 -43 21
-50 1z"/>
<path d="M1848 3079 c-2 -25 -7 -33 -20 -31 -10 2 -18 -6 -21 -20 -4 -22 -4
-22 -6 -1 -1 16 -6 20 -20 16 -11 -3 -28 4 -40 16 -28 28 -39 26 -47 -4 -4
-15 -13 -25 -24 -25 -10 0 -21 -6 -23 -12 -3 -8 -6 -6 -6 5 -1 15 -4 16 -23 6
-17 -9 -24 -9 -33 5 -7 9 -17 16 -23 16 -6 0 -13 6 -15 13 -3 7 -6 5 -6 -5 -1
-13 -9 -18 -31 -18 -20 0 -30 -5 -30 -15 0 -8 7 -15 15 -15 9 0 15 -9 15 -24
0 -13 7 -27 16 -30 13 -5 14 -9 4 -21 -16 -20 -5 -46 15 -38 10 3 15 13 12 24
-4 14 0 19 14 19 14 0 19 7 19 25 0 14 4 25 10 25 5 0 7 -7 4 -15 -4 -8 -1
-15 5 -15 7 0 17 -14 23 -30 13 -38 32 -34 36 6 3 27 6 30 33 26 16 -2 34 -13
40 -23 9 -17 6 -19 -23 -19 -29 0 -30 -1 -13 -13 20 -15 12 -42 -11 -33 -8 3
-14 -1 -14 -9 0 -8 4 -15 9 -15 5 0 16 -3 25 -6 11 -4 19 2 26 20 5 14 17 26
27 26 14 0 15 2 4 9 -9 6 -10 11 -2 15 6 4 11 16 11 26 0 13 5 17 14 14 8 -3
21 4 29 16 13 18 15 19 21 5 13 -35 7 -47 -19 -41 -33 8 -32 -3 5 -37 32 -31
63 -32 68 -4 3 12 -3 17 -19 17 -22 0 -22 1 -7 17 13 12 21 13 30 6 12 -10 41
-17 62 -14 18 2 -18 31 -39 31 -21 0 -22 4 -19 53 4 48 1 56 -25 81 l-30 28
-3 -33z"/>
<path d="M2755 2810 c-12 -23 -22 -30 -45 -30 -29 0 -40 -13 -20 -25 6 -3 10
-11 10 -16 0 -6 -7 -3 -16 5 -21 22 -41 20 -54 -4 -8 -15 -17 -19 -35 -14 -39
10 -30 -3 28 -40 54 -34 123 -56 179 -56 64 0 81 -10 74 -41 -3 -16 -1 -29 4
-29 6 0 10 5 10 11 0 6 8 3 17 -7 16 -16 18 -15 34 22 23 51 23 54 -1 54 -23
0 -26 6 -35 70 -6 42 -11 48 -70 88 l-64 42 -16 -30z"/>
<path d="M1624 2666 c-3 -9 -9 -14 -13 -12 -3 2 -15 -2 -26 -11 -19 -13 -19
-15 -2 -27 9 -7 17 -21 17 -30 0 -9 5 -16 10 -16 6 0 10 -4 10 -9 0 -13 -53
-21 -67 -9 -9 7 -13 7 -13 -1 0 -6 -7 -11 -15 -11 -9 0 -20 -10 -26 -23 -9
-19 -6 -32 14 -67 14 -24 31 -46 38 -49 9 -2 6 5 -6 18 -16 19 -17 24 -5 31
22 14 35 12 61 -9 13 -10 33 -17 44 -15 11 2 23 -2 27 -9 6 -9 11 -7 19 6 27
46 87 74 103 49 8 -13 64 -2 78 15 10 12 9 18 -5 28 -9 7 -17 22 -17 34 0 11
-5 21 -11 21 -6 0 -8 -8 -5 -17 3 -10 1 -25 -4 -33 -8 -13 -10 -12 -10 3 0 9
-7 17 -15 17 -13 0 -15 9 -9 49 6 48 6 48 -26 54 -18 4 -35 5 -39 2 -4 -2 -22
-7 -39 -10 -23 -4 -32 -2 -32 9 0 7 -7 19 -15 26 -12 10 -16 9 -21 -4z"/>
</g>
</svg>
